<svg id="svartvit_2_Image" data-name="svartvit 2 Image" xmlns="http://www.w3.org/2000/svg" viewBox="0 0 841.48 841.48"><defs><style>.cls-1{fill:none;}</style></defs><title>b&amp;amp;w logo box</title><path d="M485.52,628.3a3.37,3.37,0,0,1,.78.63c.5.72,1,1.47,1.42,2.22l202,325.09,25.26,40.67c.58.93,1.12,1.89,1.64,2.86.06.12-.1.43-.25.54a1,1,0,0,1-.62.17c-1.1,0-2.2,0-3.3,0l-450.27.33c-4.28,0-4.74,0-4.71-.53.09-1.63,1.26-2.76,2-4.05Q355.2,840.18,451,684.12l32.28-52.63c.52-.85,1-1.7,1.58-2.52A4.51,4.51,0,0,1,485.52,628.3Z" transform="translate(-79.68 -307.16)"/><path d="M484.83,520.77c.3.19.65.31.82.58.69,1,1.34,2,2,3l123.6,194.9q29.19,46,58.36,92c.58.93,1.16,1.86,1.7,2.82.13.23,0,.62,0,1-.82,0-1.59.09-2.36.09l-51.16.07c-.66,0-1.32,0-2,0a1.39,1.39,0,0,1-1.1-.63c-.62-.91-1.21-1.84-1.79-2.77l-56.46-90.89L487.77,610.44c-.52-.85-1-1.7-1.59-2.52a2.94,2.94,0,0,0-.77-.58,13.74,13.74,0,0,0-2.07,3q-11.41,18.57-22.79,37.15l-101,164.64-.36.58c-2,3.28-1.46,3-5.15,3q-13.69.06-27.39.08-10.89,0-21.79,0c-1,0-2-.06-3-.1a.6.6,0,0,1-.46-.72c.35-.68.68-1.38,1.08-2q8.87-14.31,17.81-28.59l162.25-260.3A19.06,19.06,0,0,1,484.83,520.77Z" transform="translate(-79.68 -307.16)"/><path d="M486.74,413.47a12.48,12.48,0,0,1,2.08,3l35.33,58.12L629,647.29c.75,1.22,1.48,2.45,2.17,3.71.13.24,0,.58,0,1-.58,0-1.12.11-1.66.11l-45.87-.05c-.44,0-.88,0-1.32,0a1.39,1.39,0,0,1-1.09-.65c-.58-.81-1.11-1.64-1.63-2.47q-24.5-38.61-49-77.22l-43.34-68.31c-.53-.84-1.06-1.67-1.61-2.5s-1-.83-1.48-.11c-.58.92-1.19,1.86-1.77,2.79l-60.6,97.22q-14.93,24-29.87,47.9c-2.12,3.4-1.37,3.08-5.43,3.07q-20.26,0-40.59-.1c-1,0-2-.1-2.94-.19a.59.59,0,0,1-.31-.49,8.15,8.15,0,0,1,.66-1.48l5.79-9.6Q416.24,529,483.33,418.16c.86-1.41,1.71-2.83,2.61-4.21C486.09,413.72,486.46,413.62,486.74,413.47Z" transform="translate(-79.68 -307.16)"/><path d="M463.64,1011.72c.73,0,1.38-.1,2-.1h40.22a8.92,8.92,0,0,1,1.63.16.59.59,0,0,1,.27.51,24.44,24.44,0,0,1-1.23,2.32l-13.9,22q-2.82,4.47-5.63,8.93a9.73,9.73,0,0,1-1,1.29.57.57,0,0,1-.58.07,5.43,5.43,0,0,1-.84-1q-2.57-4.05-5.12-8.1L465,1015c-.47-.74-.95-1.48-1.35-2.26C463.53,1012.48,463.64,1012.12,463.64,1011.72Z" transform="translate(-79.68 -307.16)"/><rect class="cls-1" width="841.48" height="841.48"/></svg>