<svg xmlns="http://www.w3.org/2000/svg" viewBox="0 0 1417.07 841.48"><defs><style>.cls-1{fill:none;}</style></defs><g id="Layer_2" data-name="Layer 2"><path d="M717.08,243.48h4.68V386.21h-4.68Z" transform="translate(24.8 1.83)"/><path d="M792.5,352.37v-61h4.68v61.2c0,19.44,11.52,30.6,29.88,30.6,18.54,0,30.06-11.16,30.06-30.6v-61.2h4.68v61c0,21.78-13.68,35.28-34.74,35.28S792.5,374.15,792.5,352.37Z" transform="translate(24.8 1.83)"/><path d="M959.54,338.15l34.2,48.06h-5.22L957,341.93h-.18l-31.5,44.28h-5.22l34-47.7-33.48-47.16h5.22l31,43.56H957l31-43.56h5Z" transform="translate(24.8 1.83)"/><path d="M1042.52,338.87c0-30.42,20.7-48.95,43.2-48.95,16.38,0,32.76,9.89,39.06,29.15l.54-27.72h4v94.86h-4l-.54-27.72c-6.3,19.26-22.5,29.16-39.06,29.16C1063.4,387.65,1042.52,368.93,1042.52,338.87Zm82.26-.18c0-27.54-18.18-44.28-38.88-44.28-20.34,0-38.7,16.74-38.7,44.46,0,27.36,18.54,44.28,38.88,44.28S1124.78,366.41,1124.78,338.69Z" transform="translate(24.8 1.83)"/><path d="M1251.32,298v5.22c-8.1-5.76-16.74-8.82-26.28-8.82-14.76,0-25.38,7.92-25.38,19.44,0,12.06,10.62,16.2,26.28,21.6,16.38,5.4,29.88,10.8,29.88,26.46,0,15.12-12.78,25.74-31.14,25.74a52.28,52.28,0,0,1-31.86-11.34v-5.58c9.18,7.92,20.52,12.42,31.86,12.42,15.66,0,26.46-8.82,26.46-21.06,0-12.78-11.16-17.64-27.36-22.86-15.3-5-28.8-10.26-28.8-25,0-14,12.78-24.29,30.24-24.29A45.61,45.61,0,0,1,1251.32,298Z" transform="translate(24.8 1.83)"/><path d="M717.08,459.48h4.68V602.21h-4.68Z" transform="translate(24.8 1.83)"/><path d="M820.94,554.87c0-30.42,20.7-48.95,43.2-48.95,16.38,0,32.76,9.89,39.06,29.15l.54-27.72h4v94.86h-4l-.54-27.72c-6.3,19.26-22.5,29.16-39.06,29.16C841.82,603.65,820.94,584.93,820.94,554.87Zm82.26-.18c0-27.54-18.18-44.28-38.88-44.28-20.34,0-38.7,16.74-38.7,44.46,0,27.36,18.54,44.28,38.88,44.28S903.2,582.41,903.2,554.69Z" transform="translate(24.8 1.83)"/><path d="M1017.68,534.89c6.12-19.08,22.5-29,39.06-29,22.32,0,42.84,18.53,42.84,48.95,0,30.06-20.7,48.78-43,48.78-16.38,0-32.94-9.9-39.06-29.52h-.18l-.54,28.08H1013V459.48h4.68Zm-.36,19.8c0,27.72,18.54,44.46,39.06,44.46,20.34,0,38.52-16.92,38.52-44.28,0-27.72-18-44.46-38.52-44.46S1017.32,527.15,1017.32,554.69Z" transform="translate(24.8 1.83)"/><path d="M1249,514v5.22c-8.1-5.76-16.74-8.82-26.28-8.82-14.76,0-25.38,7.92-25.38,19.44,0,12.06,10.62,16.2,26.28,21.6,16.38,5.4,29.88,10.8,29.88,26.46,0,15.12-12.78,25.74-31.14,25.74a52.23,52.23,0,0,1-31.85-11.34v-5.58c9.17,7.92,20.51,12.42,31.85,12.42,15.66,0,26.46-8.82,26.46-21.06,0-12.78-11.16-17.64-27.36-22.86-15.3-5-28.8-10.26-28.8-25,0-14,12.78-24.29,30.24-24.29A45.61,45.61,0,0,1,1249,514Z" transform="translate(24.8 1.83)"/></g><g id="Layer_4" data-name="Layer 4"><path d="M296.28,318.83a3.37,3.37,0,0,1,.78.63c.5.72,1,1.47,1.42,2.22l202,325.09,25.26,40.67c.58.93,1.12,1.89,1.64,2.86.06.12-.1.43-.25.54a1,1,0,0,1-.62.17h-3.3l-450.27.33c-4.28,0-4.74,0-4.71-.53.09-1.63,1.26-2.76,2-4q95.73-156,191.53-312.11L294,322c.52-.85,1-1.7,1.58-2.52A4.65,4.65,0,0,1,296.28,318.83Z" transform="translate(24.8 1.83)"/><path d="M295.59,211.3c.3.19.65.31.82.58.69,1,1.34,2,2,3L422,409.78l58.36,92c.58.93,1.16,1.86,1.7,2.82.13.23,0,.62,0,1-.82,0-1.59.09-2.36.09l-51.16.07h-2a1.36,1.36,0,0,1-1.1-.63c-.62-.91-1.21-1.84-1.79-2.77L367.2,411.47,298.53,301c-.52-.85-1-1.7-1.59-2.52a2.94,2.94,0,0,0-.77-.58,13.48,13.48,0,0,0-2.07,3Q282.69,319.44,271.31,338l-101,164.64-.36.58c-2,3.28-1.46,3-5.15,3q-13.7.06-27.39.08H115.62c-1,0-2-.06-3-.1a.6.6,0,0,1-.46-.71h0c.35-.68.68-1.38,1.08-2q8.87-14.31,17.81-28.59L293.3,214.61A18.78,18.78,0,0,1,295.59,211.3Z" transform="translate(24.8 1.83)"/><path d="M297.5,104a12.2,12.2,0,0,1,2.08,3l35.33,58.12,104.85,172.7c.75,1.22,1.48,2.45,2.17,3.71.13.24,0,.58,0,1-.58,0-1.12.11-1.66.11l-45.87-.05h-1.32a1.39,1.39,0,0,1-1.09-.65c-.58-.81-1.11-1.64-1.63-2.47l-49-77.22L298,193.94c-.53-.84-1.06-1.67-1.61-2.5s-1-.83-1.48-.11c-.58.92-1.19,1.86-1.77,2.79l-60.6,97.22q-14.92,24-29.87,47.9c-2.12,3.4-1.37,3.08-5.43,3.07q-20.26,0-40.59-.1c-1,0-2-.1-2.94-.19a.59.59,0,0,1-.31-.49,8.15,8.15,0,0,1,.66-1.48l5.79-9.6Q227,219.53,294.09,108.69c.86-1.41,1.71-2.83,2.61-4.21C296.85,104.25,297.22,104.15,297.5,104Z" transform="translate(24.8 1.83)"/><path d="M274.4,702.25c.73,0,1.38-.1,2-.1h40.22a8.92,8.92,0,0,1,1.63.16.6.6,0,0,1,.27.51,24.44,24.44,0,0,1-1.23,2.32l-13.9,22-5.63,8.93a9.66,9.66,0,0,1-1,1.29.56.56,0,0,1-.58.07,5.37,5.37,0,0,1-.84-1q-2.56-4-5.12-8.1l-14.46-22.8c-.47-.74-.95-1.48-1.35-2.26A2.85,2.85,0,0,1,274.4,702.25Z" transform="translate(24.8 1.83)"/><rect class="cls-1" width="1417.07" height="841.48"/></g></svg>