<svg xmlns="http://www.w3.org/2000/svg" xmlns:xlink="http://www.w3.org/1999/xlink" viewBox="0 0 1417.07 841.48"><defs><style>.cls-1{fill:#6363de;}.cls-2{fill:url(#radial-gradient);}.cls-3{fill:url(#radial-gradient-2);}.cls-4{fill:url(#radial-gradient-3);}.cls-5{fill:none;}</style><radialGradient id="radial-gradient" cx="-472.02" cy="142.23" r="924.32" gradientTransform="matrix(0.65, 0, 0, -0.65, 171.79, 613.09)" gradientUnits="userSpaceOnUse"><stop offset="0" stop-color="#fff"/><stop offset="0.01" stop-color="#f5f5fd"/><stop offset="1" stop-color="#12125b"/></radialGradient><radialGradient id="radial-gradient-2" cx="-439.26" cy="-3.66" r="924.32" gradientTransform="matrix(0.79, 0, 0, -0.79, 113.14, 717.32)" gradientUnits="userSpaceOnUse"><stop offset="0" stop-color="#fff"/><stop offset="0.01" stop-color="#f5f5fd"/><stop offset="1" stop-color="#1d1d93"/></radialGradient><radialGradient id="radial-gradient-3" cx="-408.28" cy="-117.57" r="924.32" gradientTransform="matrix(1, 0, 0, -1, 24.8, 843.83)" gradientUnits="userSpaceOnUse"><stop offset="0" stop-color="#fff"/><stop offset="0" stop-color="#f5f5fd"/><stop offset="1" stop-color="#4040d4"/></radialGradient></defs><g id="Layer_2" data-name="Layer 2"><path d="M717.08,243.48h4.68V386.21h-4.68Z" transform="translate(24.8 1.83)"/><path d="M792.5,352.37v-61h4.68v61.2c0,19.44,11.52,30.6,29.88,30.6,18.54,0,30.06-11.16,30.06-30.6v-61.2h4.68v61c0,21.78-13.68,35.28-34.74,35.28S792.5,374.15,792.5,352.37Z" transform="translate(24.8 1.83)"/><path d="M959.54,338.15l34.2,48.06h-5.22L957,341.93h-.18l-31.5,44.28h-5.22l34-47.7-33.48-47.16h5.22l31,43.56H957l31-43.56h5Z" transform="translate(24.8 1.83)"/><path d="M1042.52,338.87c0-30.42,20.7-48.95,43.2-48.95,16.38,0,32.76,9.89,39.06,29.15l.54-27.72h4v94.86h-4l-.54-27.72c-6.3,19.26-22.5,29.16-39.06,29.16C1063.4,387.65,1042.52,368.93,1042.52,338.87Zm82.26-.18c0-27.54-18.18-44.28-38.88-44.28-20.34,0-38.7,16.74-38.7,44.46,0,27.36,18.54,44.28,38.88,44.28S1124.78,366.41,1124.78,338.69Z" transform="translate(24.8 1.83)"/><path d="M1251.32,298v5.22c-8.1-5.76-16.74-8.82-26.28-8.82-14.76,0-25.38,7.92-25.38,19.44,0,12.06,10.62,16.2,26.28,21.6,16.38,5.4,29.88,10.8,29.88,26.46,0,15.12-12.78,25.74-31.14,25.74a52.28,52.28,0,0,1-31.86-11.34v-5.58c9.18,7.92,20.52,12.42,31.86,12.42,15.66,0,26.46-8.82,26.46-21.06,0-12.78-11.16-17.64-27.36-22.86-15.3-5-28.8-10.26-28.8-25,0-14,12.78-24.29,30.24-24.29A45.61,45.61,0,0,1,1251.32,298Z" transform="translate(24.8 1.83)"/><path d="M717.08,459.48h4.68V602.21h-4.68Z" transform="translate(24.8 1.83)"/><path d="M820.94,554.87c0-30.42,20.7-48.95,43.2-48.95,16.38,0,32.76,9.89,39.06,29.15l.54-27.72h4v94.86h-4l-.54-27.72c-6.3,19.26-22.5,29.16-39.06,29.16C841.82,603.65,820.94,584.93,820.94,554.87Zm82.26-.18c0-27.54-18.18-44.28-38.88-44.28-20.34,0-38.7,16.74-38.7,44.46,0,27.36,18.54,44.28,38.88,44.28S903.2,582.41,903.2,554.69Z" transform="translate(24.8 1.83)"/><path d="M1017.68,534.89c6.12-19.08,22.5-29,39.06-29,22.32,0,42.84,18.53,42.84,48.95,0,30.06-20.7,48.78-43,48.78-16.38,0-32.94-9.9-39.06-29.52h-.18l-.54,28.08H1013V459.48h4.68Zm-.36,19.8c0,27.72,18.54,44.46,39.06,44.46,20.34,0,38.52-16.92,38.52-44.28,0-27.72-18-44.46-38.52-44.46S1017.32,527.15,1017.32,554.69Z" transform="translate(24.8 1.83)"/><path d="M1249,514v5.22c-8.1-5.76-16.74-8.82-26.28-8.82-14.76,0-25.38,7.92-25.38,19.44,0,12.06,10.62,16.2,26.28,21.6,16.38,5.4,29.88,10.8,29.88,26.46,0,15.12-12.78,25.74-31.14,25.74a52.23,52.23,0,0,1-31.85-11.34v-5.58c9.17,7.92,20.51,12.42,31.85,12.42,15.66,0,26.46-8.82,26.46-21.06,0-12.78-11.16-17.64-27.36-22.86-15.3-5-28.8-10.26-28.8-25,0-14,12.78-24.29,30.24-24.29A45.61,45.61,0,0,1,1249,514Z" transform="translate(24.8 1.83)"/></g><g id="Layer_3" data-name="Layer 3"><g id="Layer_5" data-name="Layer 5"><polygon class="cls-1" points="321.24 741.31 298.98 706.71 343.49 706.71 321.24 741.31"/></g><g id="Layer_4" data-name="Layer 4"><polygon class="cls-2" points="321.24 103.84 168.27 345.7 474.21 345.7 321.24 103.84"/></g><g id="Layer_3-2" data-name="Layer 3"><polygon class="cls-3" points="321.24 213.3 135 507.94 507.48 507.94 321.24 213.3"/></g><g id="Layer_2-2" data-name="Layer 2"><polygon class="cls-4" points="321.24 320.65 84.31 695.23 558.17 695.23 321.24 320.65"/></g><rect class="cls-5" width="1417.07" height="841.48"/></g></svg>